<svg width="86" height="24" viewBox="0 0 86 24" fill="none" xmlns="http://www.w3.org/2000/svg">
<g clip-path="url(#clip0_14_353)">
<path d="M50.6039 17.9004C50.6795 19.468 50.7619 21.1001 49.207 22.298C47.8173 23.367 46.2444 23.8827 44.3987 23.9981C44.3592 23.6757 44.298 23.4211 44.298 23.1668C44.2945 18.5213 44.255 13.8725 44.3088 9.22704C44.3663 4.39496 47.8101 0.733564 52.8016 0.0820529C58.0913 -0.61018 62.9537 3.17675 63.521 8.42283C64.0381 13.1972 59.8977 17.8529 54.7947 18.131C53.4481 18.2058 52.0907 17.9921 50.6039 17.9004ZM53.8717 12.2708C55.75 12.2878 57.2545 10.9135 57.2834 9.15578C57.312 7.41161 55.8252 5.96945 53.9687 5.93892C52.1193 5.90499 50.5968 7.3064 50.5644 9.06755C50.5249 10.8287 52.0008 12.2539 53.8717 12.2708Z" fill="white"/>
<path d="M72.4055 17.7124C72.4701 19.5163 72.5813 21.2281 70.8961 22.4273C69.5047 23.4158 67.9845 23.9525 66.2059 24C66.1702 23.7419 66.1162 23.5482 66.1162 23.3511C66.1127 18.5684 66.059 13.7856 66.127 9.00285C66.195 4.37629 69.7414 0.717864 74.6287 0.0792644C79.0641 -0.501602 83.5928 2.26344 84.8979 6.4416C85.9201 9.71618 85.246 12.7156 82.8004 15.2429C80.294 17.828 77.1458 18.6806 73.5243 17.9775C73.2122 17.9128 72.9076 17.8313 72.4055 17.7124ZM79.0929 9.18627C79.1324 7.43688 77.6587 5.98303 75.8084 5.94226C73.9546 5.9015 72.4415 7.28062 72.3912 9.05381C72.3446 10.8202 73.7969 12.2537 75.6686 12.2842C77.5367 12.3148 79.0535 10.9425 79.0929 9.18627Z" fill="white"/>
<path d="M22.765 18.284C22.765 14.4533 22.44 10.923 22.847 7.47027C23.3756 2.9409 28.0118 -0.295818 32.7695 0.0214473C37.7092 0.352196 41.6204 4.13566 41.7205 8.77643C41.7846 11.8376 41.7311 14.9022 41.7311 17.9465C39.5594 18.2266 36.9591 17.0489 36.0126 15.3545C35.7735 14.9258 35.652 14.3993 35.6269 13.9133C35.5484 12.3304 35.5412 10.7441 35.4983 9.15781C35.4484 7.25087 34.0553 5.8941 32.1729 5.90421C30.2728 5.91434 28.8763 7.27789 28.837 9.16119C28.8083 10.545 28.7049 11.9288 28.7761 13.3092C28.8726 15.1857 27.8905 16.4209 26.2546 17.1873C25.2008 17.6832 24.0007 17.9061 22.765 18.284Z" fill="white"/>
<path d="M32.1876 12.8228C30.8981 12.8093 29.7908 11.7428 29.8301 10.5446C29.866 9.39372 30.9838 8.40142 32.2269 8.41493C33.5164 8.43182 34.6379 9.50509 34.595 10.6864C34.5523 11.8238 33.4162 12.8363 32.1876 12.8228Z" fill="white"/>
<path d="M19.9907 0.00158691C19.9907 3.8323 20.3156 7.36266 19.9085 10.8154C19.3763 15.3447 14.7402 18.5815 9.98253 18.2641C5.04275 17.9335 1.13166 14.1466 1.03163 9.50921C0.967357 6.44799 1.02093 3.05121 1.02093 0.00350415C3.13938 0.00355409 5.79282 1.23687 6.73936 2.93117C6.97867 3.35981 7.1001 3.88631 7.12509 4.37231C7.20369 5.95523 7.21083 7.54153 7.2537 9.12783C7.30369 11.0347 8.69668 12.3915 10.579 12.3814C12.4792 12.3713 13.8758 11.0077 13.9151 9.12445C13.9436 7.74067 14.0472 6.35688 13.9758 4.97647C13.8794 3.0999 14.8616 1.86465 16.4975 1.0985C17.5511 0.602342 18.7513 0.379592 19.9907 0.00158691Z" fill="white"/>
</g>
<defs>
<clipPath id="clip0_14_353">
<rect width="86" height="24" fill="white"/>
</clipPath>
</defs>
</svg>
